<svg id="Layer_1" data-name="Layer 1" xmlns="http://www.w3.org/2000/svg" viewBox="0 0 121 57"><defs><style>.cls-1{fill:#fff;}</style></defs><title>logo2</title><path class="cls-1" d="M71.24,52.33v.1l0,.06s0,0,.06,0h.84a.43.43,0,0,0,.24-.06.48.48,0,0,0,.18-.17,2.82,2.82,0,0,0,.16-.34l.14,0a.51.51,0,0,1,0,.1s0,.12,0,.19,0,.15,0,.22,0,.14,0,.2a.13.13,0,0,1-.14.09H70.78a.05.05,0,0,1,0,0,.06.06,0,0,1,0,0V50a.21.21,0,0,0-.07-.19.25.25,0,0,0-.16,0h-.12l0-.16.18,0,.23,0,.24,0h1.63s.05,0,.05,0v.25c0,.05,0,.1,0,.15s0,.1,0,.15v.17l-.13,0a2.88,2.88,0,0,0-.1-.31.36.36,0,0,0-.13-.16.29.29,0,0,0-.19-.06h-.9a.05.05,0,0,0,0,0V51l.42,0L72,51h.33s.08,0,.08.08a.41.41,0,0,1,0,.11s0,.08,0,.12l-1.15,0Zm-7.95,0v.1s0,0,0,.06,0,0,.06,0h.84a.43.43,0,0,0,.24-.06.46.46,0,0,0,.17-.17,2.66,2.66,0,0,0,.17-.34l.14,0a.51.51,0,0,1,0,.1s0,.12,0,.19a1.7,1.7,0,0,1,0,.22c0,.08,0,.14,0,.2a.14.14,0,0,1-.14.09H62.83a.05.05,0,0,1,0,0,.06.06,0,0,1,0,0V50a.24.24,0,0,0-.07-.19.27.27,0,0,0-.16,0h-.12l0-.16.17,0,.24,0,.24,0h1.63s0,0,0,0v.11a.61.61,0,0,1,0,.14c0,.05,0,.1,0,.15a.71.71,0,0,0,0,.15v.17l-.14,0a1.74,1.74,0,0,0-.09-.31.36.36,0,0,0-.13-.16.29.29,0,0,0-.19-.06H63.3s0,0,0,0V51l.42,0L64,51h.34c.05,0,.08,0,.08.08s0,.07,0,.11,0,.08,0,.12l-1.15,0ZM59,49.74H58.7a.36.36,0,0,0-.19.07.29.29,0,0,0-.13.17,1.45,1.45,0,0,0-.1.33h-.14v-.19a.66.66,0,0,0,0-.15,1,1,0,0,0,0-.17.71.71,0,0,0,0-.14.75.75,0,0,1,0-.11s0,0,.05,0H61s0,0,0,0a.31.31,0,0,1,0,.11.61.61,0,0,1,0,.14,1,1,0,0,1,0,.17v.34H61a1.45,1.45,0,0,0-.1-.33.32.32,0,0,0-.12-.17.4.4,0,0,0-.19-.07h-.67v2.95a.08.08,0,0,1-.06.08h-.39c-.05,0-.07,0-.07-.07v-3Zm-4.79-.34.05,0,0,0L56.25,52l-.07-2.52s0,0,0,0h.3s0,0,0,0l-.07,2.74v.51s0,0,0,0h-.28s0,0,0,0l-2-2.6.07,2.59a0,0,0,0,1,0,0h-.29a0,0,0,0,1-.05-.05l.07-2.92-.23-.32s0,0,0,0,0,0,0-.05h.12l.14,0h.21Zm-4.16,2h1.06L50.58,50Zm-.09.24-.43,1.16s0,0,0,0h-.26s0,0,0,0h0l1.28-3.08-.06-.16v0a.06.06,0,0,1,.05-.06h.4a.09.09,0,0,1,.08.06l1.25,3.22v0s0,0-.06.06h-.42a.05.05,0,0,1-.06,0l-.46-1.19Zm-3.9-.51a2,2,0,0,0,.38-.06.82.82,0,0,0,.28-.14.66.66,0,0,0,.17-.23,1.11,1.11,0,0,0,.05-.34.65.65,0,0,0-.06-.29.55.55,0,0,0-.17-.2.89.89,0,0,0-.26-.12,1.08,1.08,0,0,0-.32,0l-.16,0s-.06,0-.06.1v2.91a.08.08,0,0,1-.07.08h-.39s-.06,0-.06-.07V49.92a.21.21,0,0,0-.07-.19.25.25,0,0,0-.16,0h-.12l0-.15.59-.08a4.08,4.08,0,0,1,.61,0l.28,0a1.54,1.54,0,0,1,.3,0l.27.08a.91.91,0,0,1,.23.15.8.8,0,0,1,.15.21.67.67,0,0,1,.06.3.79.79,0,0,1-.06.32.61.61,0,0,1-.15.24,1.37,1.37,0,0,1-.22.19l-.28.13h0l.15,0a.4.4,0,0,1,.16.08.62.62,0,0,1,.14.14.6.6,0,0,1,.11.21l.21.64a1.27,1.27,0,0,0,.07.21.41.41,0,0,0,.08.12.15.15,0,0,0,.09.06h.12v.14l-.12,0-.12,0h-.19a.41.41,0,0,1-.16,0,.37.37,0,0,1-.12-.07.39.39,0,0,1-.1-.14.84.84,0,0,1-.08-.21l-.2-.69a.83.83,0,0,0-.1-.23.5.5,0,0,0-.15-.14.65.65,0,0,0-.21-.06l-.31,0Zm-4.79.66a1.13,1.13,0,0,0,0,.35.6.6,0,0,0,.16.24.68.68,0,0,0,.24.12.85.85,0,0,0,.29,0,1.32,1.32,0,0,0,.39-.06l.39-.16V49.59a.08.08,0,0,1,.07-.08h.39a.06.06,0,0,1,.07.07v3.14a.08.08,0,0,1-.07.08h-.37a.06.06,0,0,1-.07-.07l0-.23a2.7,2.7,0,0,1-.55.24,1.74,1.74,0,0,1-.59.1,1.34,1.34,0,0,1-.35-.05.73.73,0,0,1-.29-.15.77.77,0,0,1-.19-.27.89.89,0,0,1-.07-.38V50a.37.37,0,0,0,0-.12.15.15,0,0,0,0-.08l-.07,0h-.22l0-.16.29,0,.24,0,.18,0h.09a.08.08,0,0,1,.09.09Zm-4.34-.39H38L37.46,50Zm-.09.24-.43,1.16s0,0-.05,0h-.26s0,0,0,0h0l1.28-3.08-.06-.16v0a.06.06,0,0,1,.05-.06h.4s.06,0,.08.06l1.25,3.22v0a.06.06,0,0,1,0,.06h-.42s-.06,0-.07,0l-.46-1.19Zm-3.79-1.85h-.3a.37.37,0,0,0-.33.24,2.25,2.25,0,0,0-.1.33h-.14v-.06a.53.53,0,0,0,0-.13s0-.09,0-.15,0-.11,0-.17,0-.1,0-.14,0-.09,0-.11a0,0,0,0,1,0,0h2.78a0,0,0,0,1,0,0s0,.06,0,.11,0,.09,0,.14a1,1,0,0,0,0,.17v.34H35c0-.14-.07-.25-.1-.33a.39.39,0,0,0-.12-.17.43.43,0,0,0-.2-.07h-.66v2.95a.08.08,0,0,1-.07.08h-.39s-.06,0-.06-.07v-3Zm-2.45.54a.85.85,0,0,0-.09-.27.56.56,0,0,0-.16-.18.53.53,0,0,0-.21-.11.8.8,0,0,0-.5,0,.55.55,0,0,0-.22.1.45.45,0,0,0-.15.18.67.67,0,0,0-.05.26.41.41,0,0,0,.06.23.74.74,0,0,0,.18.17,1.17,1.17,0,0,0,.25.13l.29.11.34.14a1.49,1.49,0,0,1,.3.18.92.92,0,0,1,.22.26.81.81,0,0,1,.08.37.9.9,0,0,1-.06.34.61.61,0,0,1-.15.26.79.79,0,0,1-.22.19,1.39,1.39,0,0,1-.28.12l-.31.07-.32,0a2.43,2.43,0,0,1-.38,0,2.38,2.38,0,0,1-.37-.06l0,0,0,0s0-.1,0-.17,0-.16,0-.24,0-.15,0-.21V52h.14a.7.7,0,0,0,.09.29.55.55,0,0,0,.17.2.9.9,0,0,0,.24.12,1.39,1.39,0,0,0,.3,0,1.24,1.24,0,0,0,.27,0,.64.64,0,0,0,.24-.1.6.6,0,0,0,.16-.19.54.54,0,0,0,.06-.27.4.4,0,0,0-.06-.22.74.74,0,0,0-.18-.17A1.34,1.34,0,0,0,30,51.5l-.29-.12-.34-.14a1.53,1.53,0,0,1-.3-.19.84.84,0,0,1-.22-.27.86.86,0,0,1-.08-.38.83.83,0,0,1,.11-.46.89.89,0,0,1,.28-.3,1.59,1.59,0,0,1,.4-.16,2.32,2.32,0,0,1,.46,0,2.12,2.12,0,0,1,.34,0l.34.06s0,0,0,0l0,0s0,.1,0,.17,0,.14,0,.21a1.41,1.41,0,0,1,0,.2v.1Zm-5,2a.28.28,0,0,0,0,.1.08.08,0,0,0,0,.06s0,0,.06,0h.84a.43.43,0,0,0,.24-.06.48.48,0,0,0,.18-.17,2.82,2.82,0,0,0,.16-.34l.14,0a.51.51,0,0,1,0,.1s0,.12,0,.19,0,.15,0,.22a1,1,0,0,1-.05.2.13.13,0,0,1-.14.09H25.17a.05.05,0,0,1-.05,0,.06.06,0,0,1,0,0V50a.21.21,0,0,0-.07-.19.25.25,0,0,0-.16,0h-.12v-.16l.17,0,.23,0,.24,0H27s.05,0,.05,0v.25a.76.76,0,0,1,0,.15c0,.06,0,.1,0,.15v.17l-.13,0a2.88,2.88,0,0,0-.1-.31.31.31,0,0,0-.13-.16.29.29,0,0,0-.19-.06h-.9a.05.05,0,0,0,0,0V51l.42,0,.34,0h.33c.05,0,.08,0,.08.08a.41.41,0,0,1,0,.11s0,.08,0,.12l-1.15,0Zm-4-1.25A2,2,0,0,0,22,51a.82.82,0,0,0,.28-.14.53.53,0,0,0,.16-.23.86.86,0,0,0,.06-.34.65.65,0,0,0-.06-.29.55.55,0,0,0-.17-.2A.89.89,0,0,0,22,49.7a1.12,1.12,0,0,0-.32,0l-.17,0s0,0,0,.1v2.91a.08.08,0,0,1-.07.08H21c-.05,0-.07,0-.07-.07V49.92a.24.24,0,0,0-.06-.19.25.25,0,0,0-.16,0h-.12l0-.15.58-.08a4.21,4.21,0,0,1,.62,0l.28,0a1.35,1.35,0,0,1,.29,0l.28.08a.86.86,0,0,1,.22.15.65.65,0,0,1,.16.21.67.67,0,0,1,.06.3.79.79,0,0,1-.06.32,1,1,0,0,1-.15.24,1.45,1.45,0,0,1-.23.19,2.24,2.24,0,0,1-.27.13h0l.15,0a.48.48,0,0,1,.16.08.62.62,0,0,1,.14.14.59.59,0,0,1,.1.21l.21.64c0,.09.06.16.08.21a.42.42,0,0,0,.07.12.24.24,0,0,0,.09.06h.13v.14l-.12,0-.12,0H23a.41.41,0,0,1-.16,0,.24.24,0,0,1-.12-.07.39.39,0,0,1-.1-.14.84.84,0,0,1-.08-.21l-.2-.69a1.3,1.3,0,0,0-.1-.23.5.5,0,0,0-.15-.14.64.64,0,0,0-.22-.06l-.3,0Z"/><path class="cls-1" d="M104.78,50.28a.85.85,0,0,0-.09-.27.54.54,0,0,0-.15-.18.71.71,0,0,0-.21-.11.75.75,0,0,0-.26,0,.73.73,0,0,0-.25,0,.51.51,0,0,0-.21.1.38.38,0,0,0-.15.18.53.53,0,0,0-.06.26.42.42,0,0,0,.07.23.69.69,0,0,0,.17.17,1.46,1.46,0,0,0,.25.13l.29.11.34.14a1.49,1.49,0,0,1,.3.18.78.78,0,0,1,.22.26.7.7,0,0,1,.08.37,1.16,1.16,0,0,1-.05.34.93.93,0,0,1-.15.26.83.83,0,0,1-.23.19,1.39,1.39,0,0,1-.28.12l-.31.07-.32,0a2.31,2.31,0,0,1-.37,0,2.5,2.5,0,0,1-.38-.06l0,0s0,0,0,0a1.16,1.16,0,0,0,0-.17,1.93,1.93,0,0,0,0-.24v-.21a.66.66,0,0,1,0-.11h.14a.7.7,0,0,0,.09.29.67.67,0,0,0,.17.2,1,1,0,0,0,.25.12,1.36,1.36,0,0,0,.29,0,1.12,1.12,0,0,0,.27,0,.64.64,0,0,0,.24-.1.49.49,0,0,0,.16-.19.45.45,0,0,0,.07-.27.41.41,0,0,0-.07-.22.69.69,0,0,0-.17-.17,1.45,1.45,0,0,0-.25-.12l-.29-.12-.33-.14a1.35,1.35,0,0,1-.31-.19.71.71,0,0,1-.21-.27.74.74,0,0,1-.09-.38.84.84,0,0,1,.4-.76,1.45,1.45,0,0,1,.4-.16,2.28,2.28,0,0,1,.45,0,2,2,0,0,1,.34,0l.34.06s0,0,0,0a0,0,0,0,1,0,0s0,.1,0,.17a1.48,1.48,0,0,0,0,.21v.2a.58.58,0,0,1,0,.1Zm-5.16-.62a1,1,0,0,0-.47.11,1,1,0,0,0-.32.3,1.46,1.46,0,0,0-.19.44,2.73,2.73,0,0,0,0,.5,3,3,0,0,0,.06.59,1.65,1.65,0,0,0,.2.51,1,1,0,0,0,.36.36,1,1,0,0,0,.52.14.9.9,0,0,0,.48-.12.92.92,0,0,0,.32-.3,1.51,1.51,0,0,0,.18-.45,2.1,2.1,0,0,0,.06-.51,2.78,2.78,0,0,0-.06-.58,1.69,1.69,0,0,0-.2-.5,1,1,0,0,0-.36-.35A1,1,0,0,0,99.62,49.66Zm.14-.24a1.76,1.76,0,0,1,.66.12,1.27,1.27,0,0,1,.49.32,1.38,1.38,0,0,1,.32.52,1.94,1.94,0,0,1,.12.7,2.2,2.2,0,0,1-.13.76,1.48,1.48,0,0,1-.35.55,1.59,1.59,0,0,1-.56.34,2.05,2.05,0,0,1-.72.12,1.76,1.76,0,0,1-.66-.12,1.56,1.56,0,0,1-.5-.33,1.4,1.4,0,0,1-.31-.53,2,2,0,0,1-.12-.71,2.18,2.18,0,0,1,.13-.75,1.41,1.41,0,0,1,.91-.87A2.09,2.09,0,0,1,99.76,49.42Zm-5.18.32h-.3a.4.4,0,0,0-.2.07A.34.34,0,0,0,94,50a2.25,2.25,0,0,0-.1.33h-.14v-.06s0-.08,0-.13,0-.09,0-.15a1,1,0,0,1,0-.17s0-.1,0-.14,0-.09,0-.11a0,0,0,0,1,0,0h2.77a0,0,0,0,1,0,0s0,.06,0,.11,0,.09,0,.14V50a.86.86,0,0,1,0,.15v.19h-.13c0-.14-.07-.25-.1-.33a.34.34,0,0,0-.13-.17.36.36,0,0,0-.19-.07h-.66v2.95a.08.08,0,0,1-.07.08H95s-.06,0-.06-.07v-3ZM89.8,49.4l0,0,0,0,2,2.57-.07-2.52s0,0,0,0h.3s0,0,0,0l-.07,2.74v.51s0,0,0,0h-.28l0,0-2-2.6.07,2.59a0,0,0,0,1,0,0h-.3s0,0,0-.05l.07-2.92-.23-.32a0,0,0,0,1,0,0s0,0,0-.05h.11l.14,0h.22Zm-3.65,2.93v.1s0,0,0,.06,0,0,.06,0h.84a.43.43,0,0,0,.24-.06.48.48,0,0,0,.18-.17c0-.08.1-.2.16-.34l.14,0a.51.51,0,0,1,0,.1s0,.12,0,.19,0,.15-.05.22,0,.14,0,.2a.13.13,0,0,1-.14.09H85.69a.05.05,0,0,1,0,0,.06.06,0,0,1,0,0V50a.21.21,0,0,0-.07-.19.25.25,0,0,0-.16,0h-.12l0-.16.18,0,.23,0,.24,0h1.63s0,0,0,0v.25c0,.05,0,.1,0,.15a.71.71,0,0,0,0,.15v.17l-.14,0a1.74,1.74,0,0,0-.09-.31.36.36,0,0,0-.13-.16.29.29,0,0,0-.19-.06h-.91s0,0,0,0V51l.42,0,.33,0h.34c.05,0,.08,0,.08.08a.41.41,0,0,1,0,.11s0,.08,0,.12l-1.15,0Zm-2.7-2.74a.12.12,0,0,1,.09-.08l.09,0h.26s0,0,0,0,0,0,0,.05l-1.33,3.19s0,0,0,0h-.25s0,0,0,0l-1.11-2.85a.37.37,0,0,0-.11-.18.3.3,0,0,0-.16-.05h-.12l0-.16.25,0,.22,0,.18,0h.08l.07,0a.59.59,0,0,0,0,.08l1,2.62h0Zm-5.61,2.74s0,.08,0,.1a.08.08,0,0,0,0,.06s0,0,.06,0h.85a.48.48,0,0,0,.24-.06.55.55,0,0,0,.17-.17,2.66,2.66,0,0,0,.17-.34l.14,0,0,.1s0,.12,0,.19,0,.15,0,.22,0,.14-.06.2a.13.13,0,0,1-.13.09H77.39s0,0,0,0l0,0V50a.24.24,0,0,0-.06-.19.29.29,0,0,0-.16,0H77l0-.16.17,0,.24,0,.23,0h1.63s0,0,0,0v.11s0,.09,0,.14V50a.81.81,0,0,1,0,.15s0,.08,0,.11v.06l-.14,0a1.61,1.61,0,0,0-.1-.31.3.3,0,0,0-.12-.16.32.32,0,0,0-.2-.06h-.9s0,0,0,0a.07.07,0,0,0,0,.05V51l.43,0,.33,0h.33c.06,0,.08,0,.08.08v.11s0,.08,0,.12l-1.15,0Z"/><path class="cls-1" d="M108.07,30.25V42.4a2.76,2.76,0,0,0,.29,1.43,2.49,2.49,0,0,0,.79.88,3.53,3.53,0,0,0,1,.46,6.6,6.6,0,0,0,1.11.16v.87c-.3,0-.63,0-1,0a7.58,7.58,0,0,1-1.13-.18,6.61,6.61,0,0,1-1.13-.4,3.17,3.17,0,0,1-1-.67,3.24,3.24,0,0,1-.67-1,3.49,3.49,0,0,1-.24-1.43V30.25Zm-5.4,7.82a2.85,2.85,0,0,0-.7-2,3,3,0,0,0-4,0,2.85,2.85,0,0,0-.71,2v4.61a2.83,2.83,0,0,0,.71,2,3,3,0,0,0,4,0,2.83,2.83,0,0,0,.7-2ZM99.94,34.3a6.18,6.18,0,0,1,1.73.24,4.6,4.6,0,0,1,1.47.73,3.72,3.72,0,0,1,1,1.17,3.26,3.26,0,0,1,.38,1.57v4.76a3.15,3.15,0,0,1-.38,1.55,3.72,3.72,0,0,1-1,1.17,4.6,4.6,0,0,1-1.47.73,5.85,5.85,0,0,1-3.45,0,4.76,4.76,0,0,1-1.48-.73,3.82,3.82,0,0,1-1-1.17,3,3,0,0,1-.38-1.55V38a3.15,3.15,0,0,1,.38-1.57,3.82,3.82,0,0,1,1-1.17,4.76,4.76,0,0,1,1.48-.73A6.16,6.16,0,0,1,99.94,34.3ZM88.83,35.56a2.39,2.39,0,0,0-1.5.43,1.33,1.33,0,0,0-.53,1.17,1.22,1.22,0,0,0,.48.92,4.06,4.06,0,0,0,1.25.57l1.15.32,1,.26A5.58,5.58,0,0,1,93,40.38a3,3,0,0,1,.92,2.28,3.73,3.73,0,0,1-.25,1.49,3,3,0,0,1-.75,1.11,3.42,3.42,0,0,1-1.17.69,3.91,3.91,0,0,1-1.41.25H85.08v-.68a3.55,3.55,0,0,1,.74-.25,6.63,6.63,0,0,1,1.24-.09h2.35A3.27,3.27,0,0,0,90.65,45a2.4,2.4,0,0,0,.86-.55,2,2,0,0,0,.46-.77,2.56,2.56,0,0,0,.1-.87,1.64,1.64,0,0,0-.66-1.28,4.21,4.21,0,0,0-1.64-.71l-.51-.13-.72-.18-.7-.18a4.53,4.53,0,0,1-.46-.13,6,6,0,0,1-.8-.29,3.22,3.22,0,0,1-.77-.51,2.51,2.51,0,0,1-.58-.74,2.25,2.25,0,0,1-.26-1,2.75,2.75,0,0,1,.31-1.35,2.67,2.67,0,0,1,.86-.94,4,4,0,0,1,1.32-.55,6.56,6.56,0,0,1,1.65-.19h3.47v.67a2.79,2.79,0,0,1-.74.24,6.48,6.48,0,0,1-1.24.1Zm-5.71-1h-1.9V46.2h1.9Zm.12-2.68a1.06,1.06,0,0,1-1.06,1.06,1,1,0,0,1-.76-.31,1,1,0,0,1-.31-.75,1,1,0,0,1,.31-.75,1,1,0,0,1,.76-.32,1,1,0,0,1,.75.32A1,1,0,0,1,83.24,31.87Zm-5.39,2.68h2v.67a2.39,2.39,0,0,1-.75.21l-1.23.13a7.51,7.51,0,0,0-1.08.17,2.91,2.91,0,0,0-1,.43A2.35,2.35,0,0,0,75,37a2.71,2.71,0,0,0-.27,1.35V46.2h-1.9V38.33A4.56,4.56,0,0,1,73,37a2.83,2.83,0,0,1,.73-1.22,4,4,0,0,1,1.53-.9A7.53,7.53,0,0,1,77.85,34.55Zm-8.53,5a16,16,0,0,0-2.08,0,5.7,5.7,0,0,0-1.76.39,2.81,2.81,0,0,0-1.24.91,2.53,2.53,0,0,0-.49,1.57,2.5,2.5,0,0,0,.37,1.54,2.54,2.54,0,0,0,1,.83,3.69,3.69,0,0,0,1.26.34c.44,0,.83.07,1.18.07h1.77ZM66.07,34.6a13.84,13.84,0,0,1,1.56.11,5.57,5.57,0,0,1,1.7.51,3.56,3.56,0,0,1,1.35,1.13,3.08,3.08,0,0,1,.53,2V46.2H67a12,12,0,0,1-1.56-.12,5.5,5.5,0,0,1-1.69-.5,3.58,3.58,0,0,1-1.36-1.12,3.15,3.15,0,0,1-.53-2,3.3,3.3,0,0,1,.69-2.11,4.54,4.54,0,0,1,1.73-1.26,7.91,7.91,0,0,1,2.38-.57,17,17,0,0,1,2.67,0v-.09a2.57,2.57,0,0,0-.38-1.55A2.51,2.51,0,0,0,68,36a4,4,0,0,0-1.26-.36,10.39,10.39,0,0,0-1.17-.07H64.09v-.62a3.46,3.46,0,0,1,.75-.25A6.58,6.58,0,0,1,66.07,34.6ZM60.23,46.2h-1.9v-12l-3.5,7.7H53.32l-3.5-7.7v12H47.94v-16h1.88L54.09,40l4.24-9.72h1.9ZM36.65,40.28a7.76,7.76,0,0,0,.91-.05,2.84,2.84,0,0,0,1-.26,2,2,0,0,0,.76-.64,2,2,0,0,0,.29-1.2v-1.3a2,2,0,0,0-.29-1.19,1.9,1.9,0,0,0-.76-.65,2.84,2.84,0,0,0-1-.26,7.76,7.76,0,0,0-.91,0h-2.4v5.6ZM41,38.19a2.29,2.29,0,0,1-1.15,2.22,1.49,1.49,0,0,1,.58.37,1.6,1.6,0,0,1,.35.51,2.21,2.21,0,0,1,.17.6,4.89,4.89,0,0,1,0,.66V46.2H39.63V42.5a1.75,1.75,0,0,0-.31-1,1.09,1.09,0,0,0-1-.44H34.25V46.2H32.79V33.9h4.29a9.44,9.44,0,0,1,1.2.09,4.51,4.51,0,0,1,1.31.39,2.83,2.83,0,0,1,1,.86,2.47,2.47,0,0,1,.4,1.54Zm-12.81-3.5c-.26,0-.56,0-.91.05a3,3,0,0,0-1,.27,1.74,1.74,0,0,0-1,1.82v2.75h4.57v.52a2.47,2.47,0,0,1-.58.19,4.71,4.71,0,0,1-.95.07h-3v2.91a1.92,1.92,0,0,0,.27,1.19,2,2,0,0,0,.76.64,3,3,0,0,0,1,.26c.35,0,.65,0,.91,0h3.41V46a2.09,2.09,0,0,1-.58.18,4.78,4.78,0,0,1-.95.07h-2.3l-.78,0a5.61,5.61,0,0,1-.87-.14,5,5,0,0,1-.87-.31,2.76,2.76,0,0,1-.75-.51,2.56,2.56,0,0,1-.51-.79,2.47,2.47,0,0,1-.18-1.1V36.78a2.5,2.5,0,0,1,.18-1.1,2.4,2.4,0,0,1,.51-.78,2.8,2.8,0,0,1,.75-.52,5,5,0,0,1,.87-.3,5.61,5.61,0,0,1,.87-.14c.29,0,.55,0,.78,0h2.3a5.68,5.68,0,0,1,.95.07,2.09,2.09,0,0,1,.58.18v.54Zm-10,0a3.37,3.37,0,0,0-.69.07,2.31,2.31,0,0,0-.68.25,1.78,1.78,0,0,0-.56.47,1.38,1.38,0,0,0-.3.72,2,2,0,0,0,0,.86,1.34,1.34,0,0,0,.32.59,1.51,1.51,0,0,0,.49.38,2.84,2.84,0,0,0,.54.21c.35.11.75.22,1.19.33l1.29.34c.29.08.62.19,1,.32a3.7,3.7,0,0,1,1,.6,3,3,0,0,1,.78,1,3.26,3.26,0,0,1,.24,1.59,4,4,0,0,1-.52,1.88,3.61,3.61,0,0,1-1.07,1.15,3.73,3.73,0,0,1-1.29.58,5.59,5.59,0,0,1-1.16.16h-4v-.45a2,2,0,0,1,.58-.24,3.39,3.39,0,0,1,.95-.1l2.17,0a3.19,3.19,0,0,0,1.24-.23,2.54,2.54,0,0,0,.9-.62,2.36,2.36,0,0,0,.56-.89,3,3,0,0,0,.19-1.09,1.79,1.79,0,0,0-.22-.92,2.15,2.15,0,0,0-.53-.62,2.5,2.5,0,0,0-.64-.39,4.64,4.64,0,0,0-.56-.19,3.26,3.26,0,0,1-.42-.1l-.41-.1-.5-.13L17.52,40c-.25-.06-.57-.16-.94-.28a4.09,4.09,0,0,1-1-.56,3.1,3.1,0,0,1-.83-1,2.39,2.39,0,0,1-.27-1.45,2.58,2.58,0,0,1,.42-1.36,3,3,0,0,1,.94-.85A3.63,3.63,0,0,1,17,34a6.54,6.54,0,0,1,1.3-.14h3.27v.43a1.67,1.67,0,0,1-.57.26,4,4,0,0,1-.95.09Z"/><path class="cls-1" d="M108.07,30.25V42.4a2.76,2.76,0,0,0,.29,1.43,2.49,2.49,0,0,0,.79.88,3.53,3.53,0,0,0,1,.46,6.6,6.6,0,0,0,1.11.16v.87c-.3,0-.63,0-1,0a7.58,7.58,0,0,1-1.13-.18,6.61,6.61,0,0,1-1.13-.4,3.17,3.17,0,0,1-1-.67,3.24,3.24,0,0,1-.67-1,3.49,3.49,0,0,1-.24-1.43V30.25Zm-5.4,7.82a2.85,2.85,0,0,0-.7-2,3,3,0,0,0-4,0,2.85,2.85,0,0,0-.71,2v4.61a2.83,2.83,0,0,0,.71,2,3,3,0,0,0,4,0,2.83,2.83,0,0,0,.7-2ZM99.94,34.3a6.18,6.18,0,0,1,1.73.24,4.6,4.6,0,0,1,1.47.73,3.72,3.72,0,0,1,1,1.17,3.26,3.26,0,0,1,.38,1.57v4.76a3.15,3.15,0,0,1-.38,1.55,3.72,3.72,0,0,1-1,1.17,4.6,4.6,0,0,1-1.47.73,5.85,5.85,0,0,1-3.45,0,4.76,4.76,0,0,1-1.48-.73,3.82,3.82,0,0,1-1-1.17,3,3,0,0,1-.38-1.55V38a3.15,3.15,0,0,1,.38-1.57,3.82,3.82,0,0,1,1-1.17,4.76,4.76,0,0,1,1.48-.73A6.16,6.16,0,0,1,99.94,34.3ZM88.83,35.56a2.39,2.39,0,0,0-1.5.43,1.33,1.33,0,0,0-.53,1.17,1.22,1.22,0,0,0,.48.92,4.06,4.06,0,0,0,1.25.57l1.15.32,1,.26A5.58,5.58,0,0,1,93,40.38a3,3,0,0,1,.92,2.28,3.73,3.73,0,0,1-.25,1.49,3,3,0,0,1-.75,1.11,3.42,3.42,0,0,1-1.17.69,3.91,3.91,0,0,1-1.41.25H85.08v-.68a3.55,3.55,0,0,1,.74-.25,6.63,6.63,0,0,1,1.24-.09h2.35A3.27,3.27,0,0,0,90.65,45a2.4,2.4,0,0,0,.86-.55,2,2,0,0,0,.46-.77,2.56,2.56,0,0,0,.1-.87,1.64,1.64,0,0,0-.66-1.28,4.21,4.21,0,0,0-1.64-.71l-.51-.13-.72-.18-.7-.18a4.53,4.53,0,0,1-.46-.13,6,6,0,0,1-.8-.29,3.22,3.22,0,0,1-.77-.51,2.51,2.51,0,0,1-.58-.74,2.25,2.25,0,0,1-.26-1,2.75,2.75,0,0,1,.31-1.35,2.67,2.67,0,0,1,.86-.94,4,4,0,0,1,1.32-.55,6.56,6.56,0,0,1,1.65-.19h3.47v.67a2.79,2.79,0,0,1-.74.24,6.48,6.48,0,0,1-1.24.1Zm-5.71-1h-1.9V46.2h1.9Zm.12-2.68a1.06,1.06,0,0,1-1.06,1.06,1,1,0,0,1-.76-.31,1,1,0,0,1-.31-.75,1,1,0,0,1,.31-.75,1,1,0,0,1,.76-.32,1,1,0,0,1,.75.32A1,1,0,0,1,83.24,31.87Zm-5.39,2.68h2v.67a2.39,2.39,0,0,1-.75.21l-1.23.13a7.51,7.51,0,0,0-1.08.17,2.91,2.91,0,0,0-1,.43A2.35,2.35,0,0,0,75,37a2.71,2.71,0,0,0-.27,1.35V46.2h-1.9V38.33A4.56,4.56,0,0,1,73,37a2.83,2.83,0,0,1,.73-1.22,4,4,0,0,1,1.53-.9A7.53,7.53,0,0,1,77.85,34.55Zm-8.53,5a16,16,0,0,0-2.08,0,5.7,5.7,0,0,0-1.76.39,2.81,2.81,0,0,0-1.24.91,2.53,2.53,0,0,0-.49,1.57,2.5,2.5,0,0,0,.37,1.54,2.54,2.54,0,0,0,1,.83,3.69,3.69,0,0,0,1.26.34c.44,0,.83.07,1.18.07h1.77ZM66.07,34.6a13.84,13.84,0,0,1,1.56.11,5.57,5.57,0,0,1,1.7.51,3.56,3.56,0,0,1,1.35,1.13,3.08,3.08,0,0,1,.53,2V46.2H67a12,12,0,0,1-1.56-.12,5.5,5.5,0,0,1-1.69-.5,3.58,3.58,0,0,1-1.36-1.12,3.15,3.15,0,0,1-.53-2,3.3,3.3,0,0,1,.69-2.11,4.54,4.54,0,0,1,1.73-1.26,7.91,7.91,0,0,1,2.38-.57,17,17,0,0,1,2.67,0v-.09a2.57,2.57,0,0,0-.38-1.55A2.51,2.51,0,0,0,68,36a4,4,0,0,0-1.26-.36,10.39,10.39,0,0,0-1.17-.07H64.09v-.62a3.46,3.46,0,0,1,.75-.25A6.58,6.58,0,0,1,66.07,34.6ZM60.23,46.2h-1.9v-12l-3.5,7.7H53.32l-3.5-7.7v12H47.94v-16h1.88L54.09,40l4.24-9.72h1.9ZM36.65,40.28a7.76,7.76,0,0,0,.91-.05,2.84,2.84,0,0,0,1-.26,2,2,0,0,0,.76-.64,2,2,0,0,0,.29-1.2v-1.3a2,2,0,0,0-.29-1.19,1.9,1.9,0,0,0-.76-.65,2.84,2.84,0,0,0-1-.26,7.76,7.76,0,0,0-.91,0h-2.4v5.6ZM41,38.19a2.29,2.29,0,0,1-1.15,2.22,1.49,1.49,0,0,1,.58.37,1.6,1.6,0,0,1,.35.51,2.21,2.21,0,0,1,.17.6,4.89,4.89,0,0,1,0,.66V46.2H39.63V42.5a1.75,1.75,0,0,0-.31-1,1.09,1.09,0,0,0-1-.44H34.25V46.2H32.79V33.9h4.29a9.44,9.44,0,0,1,1.2.09,4.51,4.51,0,0,1,1.31.39,2.83,2.83,0,0,1,1,.86,2.47,2.47,0,0,1,.4,1.54Zm-12.81-3.5c-.26,0-.56,0-.91.05a3,3,0,0,0-1,.27,1.74,1.74,0,0,0-1,1.82v2.75h4.57v.52a2.47,2.47,0,0,1-.58.19,4.71,4.71,0,0,1-.95.07h-3v2.91a1.92,1.92,0,0,0,.27,1.19,2,2,0,0,0,.76.64,3,3,0,0,0,1,.26c.35,0,.65,0,.91,0h3.41V46a2.09,2.09,0,0,1-.58.18,4.78,4.78,0,0,1-.95.07h-2.3l-.78,0a5.61,5.61,0,0,1-.87-.14,5,5,0,0,1-.87-.31,2.76,2.76,0,0,1-.75-.51,2.56,2.56,0,0,1-.51-.79,2.47,2.47,0,0,1-.18-1.1V36.78a2.5,2.5,0,0,1,.18-1.1,2.4,2.4,0,0,1,.51-.78,2.8,2.8,0,0,1,.75-.52,5,5,0,0,1,.87-.3,5.61,5.61,0,0,1,.87-.14c.29,0,.55,0,.78,0h2.3a5.68,5.68,0,0,1,.95.07,2.09,2.09,0,0,1,.58.18v.54Zm-10,0a3.37,3.37,0,0,0-.69.07,2.31,2.31,0,0,0-.68.25,1.78,1.78,0,0,0-.56.47,1.38,1.38,0,0,0-.3.72,2,2,0,0,0,0,.86,1.34,1.34,0,0,0,.32.59,1.51,1.51,0,0,0,.49.38,2.84,2.84,0,0,0,.54.21c.35.11.75.22,1.19.33l1.29.34c.29.08.62.19,1,.32a3.7,3.7,0,0,1,1,.6,3,3,0,0,1,.78,1,3.26,3.26,0,0,1,.24,1.59,4,4,0,0,1-.52,1.88,3.61,3.61,0,0,1-1.07,1.15,3.73,3.73,0,0,1-1.29.58,5.59,5.59,0,0,1-1.16.16h-4v-.45a2,2,0,0,1,.58-.24,3.39,3.39,0,0,1,.95-.1l2.17,0a3.19,3.19,0,0,0,1.24-.23,2.54,2.54,0,0,0,.9-.62,2.36,2.36,0,0,0,.56-.89,3,3,0,0,0,.19-1.09,1.79,1.79,0,0,0-.22-.92,2.15,2.15,0,0,0-.53-.62,2.5,2.5,0,0,0-.64-.39,4.64,4.64,0,0,0-.56-.19,3.26,3.26,0,0,1-.42-.1l-.41-.1-.5-.13L17.52,40c-.25-.06-.57-.16-.94-.28a4.09,4.09,0,0,1-1-.56,3.1,3.1,0,0,1-.83-1,2.39,2.39,0,0,1-.27-1.45,2.58,2.58,0,0,1,.42-1.36,3,3,0,0,1,.94-.85A3.63,3.63,0,0,1,17,34a6.54,6.54,0,0,1,1.3-.14h3.27v.43a1.67,1.67,0,0,1-.57.26,4,4,0,0,1-.95.09Z"/><path class="cls-1" d="M68.14,13l-15.38-.11-1.47,0,0-6.65A6.13,6.13,0,0,0,51.1,4c0-.06-.09-.1-.1-.22s-.25-.15-.3-.21c-.54,1.94-.25,7.05-.21,9.34L32.9,13l5.93-3.2c2.59-1.4,5.56-2.65,8-4.43.67-.49,2.56-1.84,3.9-1.91A1.19,1.19,0,0,1,51.86,4c.08.13,10,4.66,15.63,8.38,1.49,1,2,1,2.75,1.62-.64,1.34-1.63,1.89-1.2,3.23a60.74,60.74,0,0,0,6.25.08c2.23,0,4.47-.07,6.7-.08,2.54,0,9.39,0,11.57-.32-.1-.5-2.84-6-3.74-6.41C87.7,10,69,10.28,68,11.14h0c-1.59-.67-16.27-9.46-17.31-9.44C49.21,1.6,36.45,9.4,31.17,13a11.53,11.53,0,0,0-1.39,1c-.78.76-.34.77.94.18,1-.44,1.46-.43,4.43-.43,7.5,0,26.51.12,32.32-.27.61,0,.34-.47.67-.52M68,11.15c7.22.15,14.26.41,21.51.19l2.33,4.39c-5.27.44-10.39.14-15.5.35A55.26,55.26,0,0,1,70.76,16C72,11.13,70.39,13.09,68,11.15Z"/><path class="cls-1" d="M92.42,27.16c-2.68-.18-61.93.18-64.45.63l4.37.78c1.53.12,50.27-.21,51.83-.25l9.53-.5a34,34,0,0,0,4-.35c-2.49-.43-4.2.47-4.3-1.1l-.11.87Z"/><path class="cls-1" d="M81.53,20.28c5-.28,5.69,0,8.08.78l.19,5.46c.73-.87.57-4.5.32-5.75-.64-1-6-1.67-8-.84-.48.2-.28,0-.56.35"/><path class="cls-1" d="M71.57,20.28c5.05-.28,5.69,0,8.08.78l.19,5.46c.73-.87.56-4.5.32-5.75-.64-1-6-1.67-8-.84-.48.2-.29,0-.56.35"/><path class="cls-1" d="M68.77,25.8l.9,0a26.75,26.75,0,0,0,.06-7.38c-.6.09-.67.28-1.17.69Z"/><path class="cls-1" d="M92.79,27.24l.62.11.07-1.22c0-1.17.06-2.85.07-4.09a9.51,9.51,0,0,0-.38-3.4c-.92,1.47-.6,1.27-.55,4.18,0,1.08.09,3.7.17,4.42"/><path class="cls-1" d="M51.36,13.14l-.52-.41,5.92-6.21,0,0c.13-.12.6-.14.69-.22s0,0,0,0l.15.15Z"/><path class="cls-1" d="M50.53,13.14l.52-.41L45.13,6.34s.34,0,0,0a2.67,2.67,0,0,1-.68-.22s0,0,0,0l-.14.15Z"/><path class="cls-1" d="M37.74,13.14l.6,0,.07-.44c0-.43.09-2.62.12-3.07l-.38.23L38,9.74c-.23-.24-.36,2.82-.28,3.4"/><path class="cls-1" d="M64.3,13.14l-.61,0-.06-.44c-.05-.43-.1-2.62-.13-3.07l.38.23L64,9.74c.23-.24.36,2.82.29,3.4"/><path class="cls-1" d="M57.84,13.14l-.84,0-.16-6.86.81,0c-.06,1.79.2,6.74.19,6.85"/><path class="cls-1" d="M44.24,13.14l.84,0,.16-6.86-.81,0c0,1.79-.2,6.74-.19,6.85"/><path class="cls-1" d="M63.82,13,63,13l-6.86-7.2L57.37,6c.05,0,.47.46.52.5s5.37,5.68,5.93,6.44"/><path class="cls-1" d="M38.07,13l.84,0,6.86-7-1.24.22a6.14,6.14,0,0,0-.52.5S38.64,12.22,38.07,13"/><path class="cls-1" d="M31.21,27.26c.41-.22.45.1,1-.71.38-.89-.25-9.57-.18-10.83l.06-1.52-.93.26Z"/><path class="cls-1" d="M63.3,25.49c-.88-1.09-.35-7.88-.57-9.32H61.21c-2-.07-1.88-.23-2.31-.43l-.14-.1c1.06-.35,4.51-.51,4.79.48s.15,8.48-.25,9.38"/><path class="cls-1" d="M47.21,25.49c-.88-1.09-.35-7.88-.56-9.32H45.12c-2-.07-1.88-.23-2.31-.43l-.13-.1c1-.35,4.5-.51,4.79.48s.14,8.48-.26,9.38"/><path class="cls-1" d="M53.39,26.72l.46-.29c.71-1.21-.09-8,.24-10.27,1,0,2.7,0,3.39-.52l-3.92-.18c-.81,1.54-.19,9.62-.17,11.26"/><path class="cls-1" d="M37.31,26.72l.46-.29c.7-1.21-.09-8,.23-10.27,1,0,2.7,0,3.4-.52l-3.92-.18c-.82,1.54-.2,9.62-.17,11.26"/></svg>